inDegrees=no
num_controls=7
num_derivatives=13
num_iterations=106
num_multipliers=7
num_parameters=0
num_slacks=7
num_states=26
objective=0.308917
objective_accelerations=0.052412
objective_balance=0.002281
objective_effort=0.038375
objective_height=0.214276
objective_ligament=0.001573
solver_duration=1064.337031
status=Solve_Succeeded
success=true
DataType=double
version=3
OpenSimVersion=4.5
endheader
time	/jointset/ground_pelvis/pelvis_tilt/value	/jointset/ground_pelvis/pelvis_tx/value	/jointset/ground_pelvis/pelvis_ty/value	/jointset/hip_r/hip_flexion_r/value	/jointset/hip_r/hip_adduction_r/value	/jointset/hip_r/hip_rotation_r/value	/jointset/back/lumbar_extension/value	/jointset/patellofemoral_r/patellar_flexion_r/value	/jointset/knee_r/knee_flexion_r/value	/jointset/knee_r/knee_adduction_r/value	/jointset/knee_r/knee_rotation_r/value	/jointset/ankle_r/ankle_angle_r/value	/jointset/subtalar_r/subtalar_angle_r/value	/jointset/ground_pelvis/pelvis_tilt/speed	/jointset/ground_pelvis/pelvis_tx/speed	/jointset/ground_pelvis/pelvis_ty/speed	/jointset/hip_r/hip_flexion_r/speed	/jointset/hip_r/hip_adduction_r/speed	/jointset/hip_r/hip_rotation_r/speed	/jointset/back/lumbar_extension/speed	/jointset/patellofemoral_r/patellar_flexion_r/speed	/jointset/knee_r/knee_flexion_r/speed	/jointset/knee_r/knee_adduction_r/speed	/jointset/knee_r/knee_rotation_r/speed	/jointset/ankle_r/ankle_angle_r/speed	/jointset/subtalar_r/subtalar_angle_r/speed	/forceset/tau_hip_flexion_r	/forceset/tau_hip_adduction_r	/forceset/tau_hip_rotation_r	/forceset/tau_knee_flexion_r	/forceset/tau_ankle_angle_r	/forceset/tau_subtalar_angle_r	/forceset/tau_lumbar_extension	lambda_cid13_p0	lambda_cid14_p0	lambda_cid14_p1	lambda_cid14_p2	lambda_cid14_p3	lambda_cid14_p4	lambda_cid14_p5	/jointset/ground_pelvis/pelvis_tilt/accel	/jointset/ground_pelvis/pelvis_tx/accel	/jointset/ground_pelvis/pelvis_ty/accel	/jointset/hip_r/hip_flexion_r/accel	/jointset/hip_r/hip_adduction_r/accel	/jointset/hip_r/hip_rotation_r/accel	/jointset/back/lumbar_extension/accel	/jointset/patellofemoral_r/patellar_flexion_r/accel	/jointset/knee_r/knee_flexion_r/accel	/jointset/knee_r/knee_adduction_r/accel	/jointset/knee_r/knee_rotation_r/accel	/jointset/ankle_r/ankle_angle_r/accel	/jointset/subtalar_r/subtalar_angle_r/accel	gamma_cid13_p0	gamma_cid14_p0	gamma_cid14_p1	gamma_cid14_p2	gamma_cid14_p3	gamma_cid14_p4	gamma_cid14_p5
1	-0.2897622154526025	-0.02288279974131046	0.3638586438451037	2.181408709252891	-0.2328505325275257	0.124967183672198	-0.7853944148041452	2.181661165470229	2.181661165470223	-0.1745320621813048	0.1745316351490782	0.4286453876920942	0.1768567148993909	0.0382387969964088	-0.006087604244179616	0.01324456969914665	-0.06215081303188923	-0.0003947056890168483	-0.007713114448862335	0.0001015923454880954	-0.02563073328412637	-0.02563073328412634	0.00188536269573588	-0.001062843140245906	-0.003210810762172475	-0.002190016393004158	-0.3875296360798309	-0.01145689611693597	-0.0184429595253267	-0.5184644007235131	-0.01511612359843269	-0.02206352114875058	0.3881893742506553	-0.02645747785096925	-63.65318846450086	-26.285201795264	10.96086074239082	32.1209515344271	-820.1497524694856	66.88357932953174	-0.6320166776323046	-0.7148408515870177	2.857474718154831	-7.366063008382043	-0.4275501111120709	-2.568058137830545	0.01513812843545639	-7.210990948021016	-7.210990948021016	0.3289605720348556	-0.1659635474362872	0.4185344503700045	-0.5188534304866261	-2.890721984253344e-09	-8.981015425809077e-09	-1.045655044211529e-09	-1.178152450539384e-08	2.769254658784688e-08	4.153409409009506e-09	-5.443333209892103e-08
1.01	-0.2894109745951546	-0.02297928754438223	0.3641344155614737	2.180416730125972	-0.2328747046286287	0.1247660992091627	-0.7853927456923696	2.181043656878937	2.181043656878933	-0.1744935974228529	0.1745120504739165	0.4286354534276642	0.1768115498486955	0.03206672885910527	-0.01319240276831271	0.04195041829445228	-0.1364109514524019	-0.004417545919294939	-0.03232956765476748	0.0002217830609182083	-0.09793149114337557	-0.09793149114337553	0.005953873245781087	-0.00281937897850804	0.001279281676214606	-0.006777943480659712	-0.3882866202268453	-0.01143812869422973	-0.01836278967016206	-0.5195988169442186	-0.01445909277761751	-0.02210293010105921	0.389132216842947	-0.02640641153324396	-63.52631712531412	-26.29793360407992	10.98325822263075	31.74673272700596	-821.5694119776724	67.05064327604627	-0.601198349062077	-0.7056581504601723	2.883235448269881	-7.480880319038587	-0.3863233674571135	-2.382312803084272	0.008892500706794095	-7.248693915174772	-7.248693915174753	0.4677439827870328	-0.1752895921444128	0.4725421992000011	-0.419000996877801	-1.09353877102487e-09	-1.395104723684929e-08	1.19725508810745e-08	1.270782687280402e-08	4.067927400346101e-08	-5.84847142985186e-09	-2.842450756763807e-08
1.02	-0.2891197337125397	-0.02314629509222201	0.3646984648674074	2.178677171402815	-0.23293843960973	0.1243240754358448	-0.7853901880819167	2.179701325566993	2.179701325566994	-0.1744100580216351	0.1744759422423407	0.4286720791993432	0.1767224577973291	0.02623880203050352	-0.02019155319778051	0.07090008761185991	-0.2116667322790217	-0.008307281688429849	-0.05590097650522246	0.0002792920807598146	-0.1705952774145415	-0.1705952774145414	0.01090029124773443	-0.00436755442169921	0.006101196459679716	-0.01097541652722646	-0.3890436043738613	-0.01141936127152367	-0.01828261981500296	-0.5207332331649236	-0.01380206195680252	-0.02214233905336819	0.3900750594352351	-0.02635691023624848	-63.3943763278102	-26.31746059238864	11.01551330516601	31.39521877053966	-822.9098732630235	67.13162424997985	-0.5631884158919152	-0.6937112326539602	2.906238862575236	-7.5651914896035	-0.4009292188834362	-2.359049266740498	0.002601789317730976	-7.283596630404364	-7.283596630404359	0.5045420624164988	-0.1242914684220846	0.484898919385614	-0.4407626222688673	1.91056573017137e-08	1.703628177823146e-09	7.437583244119304e-08	1.142192291381807e-07	1.764676689952307e-09	-3.999124189498415e-08	3.097716359309e-07
1.03	-0.2888848406632032	-0.02338260001640197	0.365553092849014	2.176180693002333	-0.2330403756970364	0.1236515143126147	-0.7853872904081243	2.177630883856101	2.177630883856099	-0.1742729051458035	0.1744255803510687	0.4287581232700364	0.1765931585493358	0.02082206322182614	-0.02703481251260399	0.100052932507369	-0.287738898181411	-0.01205278478687604	-0.07848209545792209	0.0002938556035332914	-0.2435178419734345	-0.2435178419734345	0.01661539639816925	-0.00567807112024637	0.01111941732564471	-0.01483195524118847	-0.3895849363916306	-0.01139892592092599	-0.0181053276405686	-0.5218510754690555	-0.01268202612721728	-0.02208276947963152	0.3909022364850832	-0.02628471453690695	-63.07327164642851	-26.25219472423762	11.02433062456961	30.69715954376287	-823.9866579472099	67.31487629239084	-0.5185752809279587	-0.6744481870128211	2.923905788249773	-7.644719715161957	-0.3572609074550384	-2.188269491996829	-7.44274581471796e-05	-7.300310972172235	-7.300310972172231	0.6177257973514694	-0.130352422161466	0.5120515126564528	-0.3501797821210628	3.949262901587595e-08	1.756875978867644e-08	1.372830433445244e-07	2.165165706983249e-07	-3.767952597793549e-08	-7.438034796854791e-08	6.511533643168608e-07
1.04	-0.2887016467354713	-0.02368630051495335	0.3667000689766182	2.172920194827903	-0.2331789468257542	0.1227570167433635	-0.7853844387113404	2.174830471578913	2.174830471578909	-0.1740760550072754	0.1743629291624905	0.42889470311788	0.1764268778569707	0.01589897771026571	-0.03367066807206411	0.1293697168113624	-0.364470687068011	-0.01563428997051415	-0.1002882657091066	0.0002700966777063419	-0.316589390673947	-0.3165893906739471	0.02283974378838516	-0.006825413882410516	0.01620835188979046	-0.0183717054015982	-0.3901262684093996	-0.01137849057033016	-0.01792803546611426	-0.5229689177731877	-0.01156199029763343	-0.02202319990589939	0.391729413534929	-0.02621260520120269	-62.74688430376371	-26.19284145542891	11.04189967244483	30.01750103498264	-824.9812214369547	67.41992117824758	-0.4644577564685018	-0.6522304815812855	2.939026744272107	-7.697116086445668	-0.3681296359218232	-2.204059526437454	-0.005062700402348658	-7.313393458728271	-7.313393458728275	0.6063905103727339	-0.09165668114547704	0.4990416590217777	-0.3774049115584073	6.18190681259833e-08	3.23282148283067e-08	1.995280045530328e-07	3.183913344079368e-07	-6.661004729123679e-08	-1.051808456600692e-07	1.002765556354467e-06
1.05	-0.2885649906339884	-0.02405515184254445	0.3681409905639135	2.168889367335154	-0.2333524435095456	0.1216486488198854	-0.7853819835509184	2.171298746482801	2.171298746482794	-0.1738142843527141	0.1742898232488291	0.4290821849829444	0.1762267249392062	0.01154000026989858	-0.04004769845386771	0.1588383536063521	-0.4417828938027117	-0.01902796378995529	-0.1212528875028059	0.0002145176212894673	-0.3897652442550782	-0.3897652442550786	0.02958508241602669	-0.00777114717206618	0.02126951866907529	-0.02160395292319177	-0.3905581152391995	-0.01132371095535599	-0.01763799123274808	-0.524330285157129	-0.009854111483180676	-0.02190622158564263	0.3925687113809159	-0.02611314041431264	-62.21412031123241	-26.07183139415677	11.04896691476753	28.95341577654367	-826.0037814459452	67.63489484236752	-0.4054473407999321	-0.6226737989367763	2.954317607103091	-7.761480183928339	-0.3193712551167725	-2.022789198130224	-0.00676817603741928	-7.321140731141501	-7.321140731141512	0.7191312841100032	-0.09220723156224762	0.5068773418797855	-0.2878038888435627	8.420611559221394e-08	4.705311747508623e-08	2.617522704585779e-07	4.202528925597197e-07	-9.521201606220731e-08	-1.358691993396517e-07	1.354697450381187e-06
1.06	-0.288468690227508	-0.0244862203704449	0.369877305611157	2.164082776331666	-0.233558753931565	0.1203346095400114	-0.785380276714611	2.167034970966209	2.167034970966204	-0.1734829551628421	0.1742080248865342	0.4293197231467006	0.1759959157029493	0.007827838710375566	-0.04611410813393368	0.1884484088010127	-0.5196233892152533	-0.02219703761585684	-0.1414225369882665	0.000120431853841869	-0.4629994747696483	-0.4629994747696489	0.03675145084967431	-0.008563903609187124	0.02621961162827838	-0.02450296910013451	-0.3909899620690033	-0.01126893134038063	-0.01734794699939182	-0.5256916525410693	-0.008146232668726983	-0.02178924326538296	0.3934080092268974	-0.02601147504226043	-61.67608343790502	-25.95576683475506	11.06352538205791	27.90560210885316	-826.9434368361542	67.77996326134206	-0.3350945802996638	-0.5901063412337525	2.967310424206305	-7.802773822013885	-0.3232096372139054	-2.045065064789721	-0.01276404260845547	-7.32506884541607	-7.325068845416073	0.6905964715739625	-0.06106131063852786	0.4768268950054503	-0.3107586426282378	1.094983963460381e-07	6.396801698317132e-08	3.287474864873951e-07	5.289625566152048e-07	-1.233433689790143e-07	-1.655081535116344e-07	1.741109398533453e-06
1.07	-0.2884060840112663	-0.02497623954450326	0.371910347029902	2.158495569219372	-0.2337956167537208	0.1188232147135011	-0.7853796293556711	2.16203875832858	2.162038758328578	-0.1730776258752794	0.1741193736973047	0.4296057904346245	0.1757375861560563	0.004822603160403113	-0.05182181831239563	0.2181761153004874	-0.5978713353058256	-0.02513207140930464	-0.1607115961997923	7.264670267027509e-06	-0.5362333873154843	-0.536233387315485	0.04438285415936479	-0.00913473406507829	0.03093937111436165	-0.02711500044997123	-0.3912690891031263	-0.01116562082949101	-0.01693406422420402	-0.5272117025953366	-0.005914497202452212	-0.02162008986235923	0.3942091175561058	-0.02588546910548925	-60.94751363760553	-25.78243871347787	11.06753526184218	26.51826939920048	-827.8049676593622	68.01418867598976	-0.263846703590834	-0.5509477887315729	2.977897379104753	-7.843790915545291	-0.2720525253690112	-1.849079511463675	-0.01085934569443369	-7.321129991950592	-7.321129991950595	0.8095532934639416	-0.0501527224417594	0.4613788689226476	-0.2290951996895096	1.349452107853725e-07	8.09994056860067e-08	3.959964764589396e-07	6.380364816230147e-07	-1.514496891376211e-07	-1.950912885608724e-07	2.12935539211793e-06
1.08	-0.288369651882776	-0.02552130470686202	0.3742411448368993	2.152124285463576	-0.234060510368804	0.1171232786624495	-0.7853801669264557	2.156310491058935	2.156310491058941	-0.1725939543480542	0.1740260024416413	0.4299374209961113	0.1754546023319595	0.00259302116064682	-0.05712330579401292	0.2479996864514735	-0.6764387179150515	-0.02780319620110411	-0.179130781896504	-0.0001165540917937755	-0.6094104011726498	-0.6094104011726506	0.05241989878094951	-0.009507916896063201	0.03533226634096049	-0.02943382454093282	-0.3915482161372564	-0.01106231031860071	-0.01652018144903071	-0.5287317526496027	-0.003682761736175629	-0.02145093645933302	0.3950102258853059	-0.02575394799686053	-60.21387637468118	-25.6128482309745	11.07742336552769	25.14633425155392	-828.5854971824833	68.1887111317985	-0.1799638702564239	-0.5088618018648157	2.986483354508572	-7.866661125744658	-0.270427836884241	-1.871090361826903	-0.01489435830558609	-7.313689107681954	-7.313689107681956	0.7717247339528184	-0.02153178565727024	0.4114540431085945	-0.2521171908532077	1.645297027365291e-07	9.968785735651762e-08	4.697424626795512e-07	7.549104003395931e-07	-1.741110888557002e-07	-2.214646165121786e-07	2.564997831459595e-06
